<?xml version="1.0" encoding="UTF-8"?>
<svg width="111px" height="28px" viewBox="0 0 111 28" version="1.1" xmlns="http://www.w3.org/2000/svg" xmlns:xlink="http://www.w3.org/1999/xlink">
    <!-- Generator: Sketch 43.1 (39012) - http://www.bohemiancoding.com/sketch -->
    <title>Logo</title>
    <desc>Created with Sketch.</desc>
    <defs></defs>
    <g id="Symbols" stroke="none" stroke-width="1" fill="none" fill-rule="evenodd">
        <g id="Header-nav" transform="translate(-1.000000, -7.000000)" fill="#3A3D49">
            <g id="Group-17" transform="translate(0.500000, 1.000000)">
                <g id="Logo" transform="translate(0.000000, 6.230246)">
                    <g id="Group-19">
                        <path d="M33.2243224,22.0973927 C30.9305547,22.0973927 28.558621,20.393913 28.558621,17.5448972 C28.558621,14.6945337 30.9305547,12.9924017 33.2243224,12.9924017 C35.4682256,12.9924017 37.8522885,14.5880662 37.8522885,17.5448972 C37.8522885,20.5340727 35.5234809,22.0973927 33.2243224,22.0973927 L33.2243224,22.0973927 Z M37.8522885,8.55041673 L37.8522885,10.3361055 C36.491122,8.75122248 34.2229604,8.17306364 32.5828222,8.17306364 C28.1314034,8.17306364 23.3996652,11.4573832 23.3996652,17.5448972 C23.3996652,23.6324112 28.1314034,26.9167307 32.5828222,26.9167307 C34.3536863,26.9167307 36.6124141,26.1660676 37.8522885,24.7226921 L37.8522885,26.577113 L42.8603031,26.577113 L42.8603031,8.55041673 L37.8522885,8.55041673 Z" id="Fill-8"></path>
                        <path d="M58.4470073,20.2804376 L58.3270629,20.443508 C57.5507937,21.502792 56.2435348,22.1348585 54.8298084,22.1348585 C52.4996531,22.1348585 50.089984,20.4030773 50.089984,17.5068923 C50.089984,14.5985782 52.5319976,13.0298675 54.8298084,13.0298675 C56.2610548,13.0298675 57.5683137,13.648457 58.3270629,14.6834826 L58.448355,14.8479007 L62.4348209,11.8479437 L62.3108334,11.6862209 C60.6437414,9.48679147 57.8472854,8.1727941 54.8298084,8.1727941 C49.2934995,8.1727941 45.1170094,12.1862138 45.1170094,17.5068923 C45.1170094,22.89226 49.2934995,26.9541965 54.8298084,26.9541965 C57.8513285,26.9541965 60.662609,25.6267222 62.3499164,23.4030344 L62.4739039,23.2386163 L58.4470073,20.2804376 Z" id="Fill-10"></path>
                        <polygon id="Fill-13" points="71.547898 8.46578182 71.547898 1.74889681 66.5776187 1.74889681 66.5776187 8.46578182 63.3701175 8.46578182 63.3701175 12.568149 66.5776187 12.568149 66.5776187 26.492478 71.547898 26.492478 71.547898 12.568149 75.2836936 12.568149 75.2836936 8.46578182"></polygon>
                        <path d="M85.3572691,22.0973927 C83.0635014,22.0973927 80.6915677,20.393913 80.6915677,17.5448972 C80.6915677,14.6945337 83.0635014,12.9924017 85.3572691,12.9924017 C87.6011723,12.9924017 89.9852353,14.5880662 89.9852353,17.5448972 C89.9852353,20.5340727 87.6564276,22.0973927 85.3572691,22.0973927 L85.3572691,22.0973927 Z M89.9852353,8.55041673 L89.9852353,10.3361055 C88.6240688,8.75122248 86.3559071,8.17306364 84.7157689,8.17306364 C80.2643501,8.17306364 75.5326119,11.4573832 75.5326119,17.5448972 C75.5326119,23.6324112 80.2643501,26.9167307 84.7157689,26.9167307 C86.486633,26.9167307 88.7453608,26.1660676 89.9852353,24.7226921 L89.9852353,26.577113 L94.9932498,26.577113 L94.9932498,8.55041673 L89.9852353,8.55041673 Z" id="Fill-15"></path>
                        <path d="M110.69626,8.83760939 C109.859344,8.39691488 108.851273,8.17319841 107.696303,8.17319841 C105.611427,8.17319841 103.880993,9.47776195 102.918743,11.7216652 L102.918743,8.5505515 L97.9093806,8.5505515 L97.9093806,26.5772477 L102.918743,26.5772477 L102.918743,20.1487683 C102.918743,15.256655 104.296082,12.8793305 107.130273,12.8793305 C107.591183,12.8793305 108.67203,12.8793305 109.725923,13.3523696 L109.959073,13.4561417 L110.828333,8.90768925 L110.69626,8.83760939 Z" id="Fill-17"></path>
                        <polygon id="Fill-7" points="15.9288826 0.17250427 15.9288826 11.0780086 5.91824415 11.0780086 5.91824415 0.17250427 0.721553017 0.17250427 0.721553017 26.5764391 5.91824415 26.5764391 5.91824415 15.821876 15.9288826 15.821876 15.9288826 26.5764391 21.2010443 26.5764391 21.2010443 0.17250427"></polygon>
                    </g>
                </g>
            </g>
        </g>
    </g>
</svg>